<?xml version="1.0" standalone="no"?>
<!DOCTYPE svg PUBLIC "-//W3C//DTD SVG 20010904//EN"
 "http://www.w3.org/TR/2001/REC-SVG-20010904/DTD/svg10.dtd">
<svg version="1.0" xmlns="http://www.w3.org/2000/svg"
 width="700.000000pt" height="700.000000pt" viewBox="0 0 700.000000 700.000000"
 preserveAspectRatio="xMidYMid meet">
<metadata>
Created by potrace 1.14, written by Peter Selinger 2001-2017
</metadata>
<g transform="translate(0.000000,700.000000) scale(0.100000,-0.100000)"
fill="#000000" stroke="none">
<path d="M1410 6933 c-231 -26 -489 -123 -700 -264 -128 -85 -334 -291 -419
-419 -111 -169 -197 -373 -236 -564 -34 -168 -36 -319 -33 -2301 3 -1787 5
-1968 21 -2050 64 -343 202 -613 434 -849 250 -254 566 -410 918 -456 54 -7
749 -10 2145 -8 2057 4 2065 4 2155 25 209 48 393 126 552 232 391 262 641
675 692 1143 15 135 15 3981 0 4116 -28 258 -111 488 -257 707 -206 310 -532
546 -884 640 -215 57 -116 55 -2323 53 -1117 -1 -2046 -3 -2065 -5z m1531
-1334 c19 -7 48 -22 64 -34 17 -12 131 -165 253 -339 123 -174 227 -314 232
-311 5 3 109 148 232 322 134 190 235 324 253 335 81 50 168 48 237 -5 23 -18
50 -46 60 -64 25 -43 33 -119 16 -166 -7 -21 -132 -207 -278 -414 -146 -207
-264 -381 -262 -386 2 -5 453 -648 1003 -1428 549 -780 1009 -1435 1021 -1456
49 -83 18 -206 -67 -265 -71 -50 -179 -47 -244 7 -16 14 -467 646 -1001 1405
-957 1357 -973 1379 -990 1357 -9 -12 -441 -625 -960 -1362 -519 -737 -957
-1355 -974 -1374 -39 -42 -99 -71 -151 -71 -61 0 -139 41 -172 91 -24 37 -28
52 -28 118 0 70 3 80 34 126 19 28 480 681 1023 1453 544 771 986 1407 983
1413 -4 5 -121 173 -261 371 -140 199 -262 375 -272 392 -23 45 -21 131 6 183
46 89 151 132 243 102z m440 -2477 c158 -132 233 -225 308 -382 49 -103 111
-277 111 -312 0 -29 14 -21 69 37 54 57 95 133 107 199 l7 39 23 -44 c116
-221 170 -509 130 -695 -43 -197 -173 -366 -346 -452 -105 -51 -190 -72 -300
-72 -251 0 -462 119 -588 330 -11 19 -33 71 -48 115 -24 69 -28 96 -28 200 -1
223 25 278 245 530 73 82 128 179 152 265 24 86 47 217 47 271 0 27 4 49 8 49
5 0 51 -35 103 -78z"/>
</g>
</svg>
